<svg viewBox="0 0 200 187" xmlns="http://www.w3.org/2000/svg" xmlns:xlink="http://www.w3.org/1999/xlink">
    <mask id="mask0" mask-type="alpha">
        <path d="M62.7,-35.3C76.9,-11.7,80.8,18.6,68.7,41.2C56.5,63.7,28.3,78.5,0.5,78.2C-27.2,77.9,-54.3,62.5,-62.5,42.2C-70.7,21.9,-59.9,-3.2,-46.4,-26.5C-32.8,-49.7,-16.4,-71,4,-73.3C24.3,-75.6,48.6,-58.8,62.7,-35.3Z"/>
    </mask>
    <g mask="url(#mask0)">
        <path d="M62.7,-35.3C76.9,-11.7,80.8,18.6,68.7,41.2C56.5,63.7,28.3,78.5,0.5,78.2C-27.2,77.9,-54.3,62.5,-62.5,42.2C-70.7,21.9,-59.9,-3.2,-46.4,-26.5C-32.8,-49.7,-16.4,-71,4,-73.3C24.3,-75.6,48.6,-58.8,62.7,-35.3Z"/>
        <image href=""/>
    </g>
</svg>
